<mxfile host="app.diagrams.net" modified="2024-03-11T13:21:21.419Z" agent="Mozilla/5.0 (Windows NT 10.0; Win64; x64) AppleWebKit/537.36 (KHTML, like Gecko) Chrome/122.0.0.0 Safari/537.36" etag="ePiGe8QxRqKr7gPPQVKG" version="24.0.4" type="device">
  <diagram name="Страница — 1" id="KvfN80xWQ4-2mwchnx0A">
    <mxGraphModel dx="1339" dy="1134" grid="0" gridSize="10" guides="1" tooltips="1" connect="1" arrows="1" fold="1" page="0" pageScale="1" pageWidth="827" pageHeight="1169" math="0" shadow="0">
      <root>
        <mxCell id="0" />
        <mxCell id="1" parent="0" />
        <mxCell id="5f_vDEl9bE6pwLl_rPAP-12" value="" style="swimlane;startSize=0;" vertex="1" parent="1">
          <mxGeometry x="-181" y="141" width="580" height="268" as="geometry" />
        </mxCell>
        <mxCell id="5f_vDEl9bE6pwLl_rPAP-2" value="Регистрация" style="ellipse;whiteSpace=wrap;html=1;" vertex="1" parent="5f_vDEl9bE6pwLl_rPAP-12">
          <mxGeometry x="222" y="8" width="120" height="80" as="geometry" />
        </mxCell>
        <mxCell id="5f_vDEl9bE6pwLl_rPAP-3" value="Авторизация" style="ellipse;whiteSpace=wrap;html=1;" vertex="1" parent="5f_vDEl9bE6pwLl_rPAP-12">
          <mxGeometry x="222" y="154" width="120" height="80" as="geometry" />
        </mxCell>
        <mxCell id="5f_vDEl9bE6pwLl_rPAP-5" value="Профиль" style="swimlane;fontStyle=0;childLayout=stackLayout;horizontal=1;startSize=30;horizontalStack=0;resizeParent=1;resizeParentMax=0;resizeLast=0;collapsible=1;marginBottom=0;whiteSpace=wrap;html=1;" vertex="1" parent="5f_vDEl9bE6pwLl_rPAP-12">
          <mxGeometry x="23" y="104" width="140" height="120" as="geometry" />
        </mxCell>
        <mxCell id="5f_vDEl9bE6pwLl_rPAP-6" value="ФИО" style="text;strokeColor=none;fillColor=none;align=left;verticalAlign=middle;spacingLeft=4;spacingRight=4;overflow=hidden;points=[[0,0.5],[1,0.5]];portConstraint=eastwest;rotatable=0;whiteSpace=wrap;html=1;" vertex="1" parent="5f_vDEl9bE6pwLl_rPAP-5">
          <mxGeometry y="30" width="140" height="30" as="geometry" />
        </mxCell>
        <mxCell id="5f_vDEl9bE6pwLl_rPAP-7" value="Телефон" style="text;strokeColor=none;fillColor=none;align=left;verticalAlign=middle;spacingLeft=4;spacingRight=4;overflow=hidden;points=[[0,0.5],[1,0.5]];portConstraint=eastwest;rotatable=0;whiteSpace=wrap;html=1;" vertex="1" parent="5f_vDEl9bE6pwLl_rPAP-5">
          <mxGeometry y="60" width="140" height="30" as="geometry" />
        </mxCell>
        <mxCell id="5f_vDEl9bE6pwLl_rPAP-8" value="email" style="text;strokeColor=none;fillColor=none;align=left;verticalAlign=middle;spacingLeft=4;spacingRight=4;overflow=hidden;points=[[0,0.5],[1,0.5]];portConstraint=eastwest;rotatable=0;whiteSpace=wrap;html=1;" vertex="1" parent="5f_vDEl9bE6pwLl_rPAP-5">
          <mxGeometry y="90" width="140" height="30" as="geometry" />
        </mxCell>
        <mxCell id="5f_vDEl9bE6pwLl_rPAP-13" value="Вход в систему" style="text;html=1;align=center;verticalAlign=middle;resizable=0;points=[];autosize=1;strokeColor=none;fillColor=none;fontSize=16;" vertex="1" parent="5f_vDEl9bE6pwLl_rPAP-12">
          <mxGeometry x="60" y="12" width="132" height="31" as="geometry" />
        </mxCell>
        <mxCell id="5f_vDEl9bE6pwLl_rPAP-14" style="edgeStyle=none;curved=1;rounded=0;orthogonalLoop=1;jettySize=auto;html=1;fontSize=12;startSize=8;endSize=8;" edge="1" parent="5f_vDEl9bE6pwLl_rPAP-12" source="5f_vDEl9bE6pwLl_rPAP-1" target="5f_vDEl9bE6pwLl_rPAP-2">
          <mxGeometry relative="1" as="geometry" />
        </mxCell>
        <mxCell id="5f_vDEl9bE6pwLl_rPAP-15" style="edgeStyle=none;curved=1;rounded=0;orthogonalLoop=1;jettySize=auto;html=1;fontSize=12;startSize=8;endSize=8;" edge="1" parent="5f_vDEl9bE6pwLl_rPAP-12" source="5f_vDEl9bE6pwLl_rPAP-1" target="5f_vDEl9bE6pwLl_rPAP-3">
          <mxGeometry relative="1" as="geometry" />
        </mxCell>
        <mxCell id="5f_vDEl9bE6pwLl_rPAP-1" value="Пользователь" style="shape=umlActor;verticalLabelPosition=bottom;verticalAlign=top;html=1;outlineConnect=0;" vertex="1" parent="5f_vDEl9bE6pwLl_rPAP-12">
          <mxGeometry x="460" y="94" width="30" height="60" as="geometry" />
        </mxCell>
        <mxCell id="5f_vDEl9bE6pwLl_rPAP-18" value="" style="swimlane;startSize=0;" vertex="1" parent="1">
          <mxGeometry x="-388" y="443" width="1031" height="736" as="geometry" />
        </mxCell>
        <mxCell id="5f_vDEl9bE6pwLl_rPAP-19" value="В системе" style="text;html=1;align=center;verticalAlign=middle;resizable=0;points=[];autosize=1;strokeColor=none;fillColor=none;fontSize=16;" vertex="1" parent="5f_vDEl9bE6pwLl_rPAP-18">
          <mxGeometry x="30" y="8" width="94" height="31" as="geometry" />
        </mxCell>
        <mxCell id="5f_vDEl9bE6pwLl_rPAP-38" style="edgeStyle=none;curved=1;rounded=0;orthogonalLoop=1;jettySize=auto;html=1;fontSize=12;startSize=8;endSize=8;" edge="1" parent="5f_vDEl9bE6pwLl_rPAP-18" source="5f_vDEl9bE6pwLl_rPAP-10" target="5f_vDEl9bE6pwLl_rPAP-9">
          <mxGeometry relative="1" as="geometry" />
        </mxCell>
        <mxCell id="5f_vDEl9bE6pwLl_rPAP-39" style="edgeStyle=none;curved=1;rounded=0;orthogonalLoop=1;jettySize=auto;html=1;fontSize=12;startSize=8;endSize=8;" edge="1" parent="5f_vDEl9bE6pwLl_rPAP-18" source="5f_vDEl9bE6pwLl_rPAP-10" target="5f_vDEl9bE6pwLl_rPAP-29">
          <mxGeometry relative="1" as="geometry" />
        </mxCell>
        <mxCell id="5f_vDEl9bE6pwLl_rPAP-10" value="Пользователь" style="shape=umlActor;verticalLabelPosition=bottom;verticalAlign=top;html=1;outlineConnect=0;" vertex="1" parent="5f_vDEl9bE6pwLl_rPAP-18">
          <mxGeometry x="78" y="222" width="30" height="60" as="geometry" />
        </mxCell>
        <mxCell id="5f_vDEl9bE6pwLl_rPAP-35" style="edgeStyle=none;curved=1;rounded=0;orthogonalLoop=1;jettySize=auto;html=1;fontSize=12;startSize=8;endSize=8;endArrow=none;endFill=0;dashed=1;" edge="1" parent="5f_vDEl9bE6pwLl_rPAP-18" source="5f_vDEl9bE6pwLl_rPAP-9" target="5f_vDEl9bE6pwLl_rPAP-20">
          <mxGeometry relative="1" as="geometry" />
        </mxCell>
        <mxCell id="5f_vDEl9bE6pwLl_rPAP-9" value="Создание заявления" style="ellipse;whiteSpace=wrap;html=1;" vertex="1" parent="5f_vDEl9bE6pwLl_rPAP-18">
          <mxGeometry x="205" y="149" width="120" height="80" as="geometry" />
        </mxCell>
        <mxCell id="5f_vDEl9bE6pwLl_rPAP-20" value="Заявление" style="swimlane;fontStyle=0;childLayout=stackLayout;horizontal=1;startSize=30;horizontalStack=0;resizeParent=1;resizeParentMax=0;resizeLast=0;collapsible=1;marginBottom=0;whiteSpace=wrap;html=1;" vertex="1" parent="5f_vDEl9bE6pwLl_rPAP-18">
          <mxGeometry x="441" y="29" width="140" height="120" as="geometry" />
        </mxCell>
        <mxCell id="5f_vDEl9bE6pwLl_rPAP-21" value="Описание" style="text;strokeColor=none;fillColor=none;align=left;verticalAlign=middle;spacingLeft=4;spacingRight=4;overflow=hidden;points=[[0,0.5],[1,0.5]];portConstraint=eastwest;rotatable=0;whiteSpace=wrap;html=1;" vertex="1" parent="5f_vDEl9bE6pwLl_rPAP-20">
          <mxGeometry y="30" width="140" height="30" as="geometry" />
        </mxCell>
        <mxCell id="5f_vDEl9bE6pwLl_rPAP-22" value="Номер автомобиля" style="text;strokeColor=none;fillColor=none;align=left;verticalAlign=middle;spacingLeft=4;spacingRight=4;overflow=hidden;points=[[0,0.5],[1,0.5]];portConstraint=eastwest;rotatable=0;whiteSpace=wrap;html=1;" vertex="1" parent="5f_vDEl9bE6pwLl_rPAP-20">
          <mxGeometry y="60" width="140" height="30" as="geometry" />
        </mxCell>
        <mxCell id="5f_vDEl9bE6pwLl_rPAP-23" value="Статус" style="text;strokeColor=none;fillColor=none;align=left;verticalAlign=middle;spacingLeft=4;spacingRight=4;overflow=hidden;points=[[0,0.5],[1,0.5]];portConstraint=eastwest;rotatable=0;whiteSpace=wrap;html=1;" vertex="1" parent="5f_vDEl9bE6pwLl_rPAP-20">
          <mxGeometry y="90" width="140" height="30" as="geometry" />
        </mxCell>
        <mxCell id="5f_vDEl9bE6pwLl_rPAP-24" value="Статусы" style="swimlane;fontStyle=0;childLayout=stackLayout;horizontal=1;startSize=30;horizontalStack=0;resizeParent=1;resizeParentMax=0;resizeLast=0;collapsible=1;marginBottom=0;whiteSpace=wrap;html=1;" vertex="1" parent="5f_vDEl9bE6pwLl_rPAP-18">
          <mxGeometry x="719" y="48" width="140" height="120" as="geometry" />
        </mxCell>
        <mxCell id="5f_vDEl9bE6pwLl_rPAP-25" value="новое" style="text;strokeColor=none;fillColor=none;align=left;verticalAlign=middle;spacingLeft=4;spacingRight=4;overflow=hidden;points=[[0,0.5],[1,0.5]];portConstraint=eastwest;rotatable=0;whiteSpace=wrap;html=1;" vertex="1" parent="5f_vDEl9bE6pwLl_rPAP-24">
          <mxGeometry y="30" width="140" height="30" as="geometry" />
        </mxCell>
        <mxCell id="5f_vDEl9bE6pwLl_rPAP-26" value="подтверждено" style="text;strokeColor=none;fillColor=none;align=left;verticalAlign=middle;spacingLeft=4;spacingRight=4;overflow=hidden;points=[[0,0.5],[1,0.5]];portConstraint=eastwest;rotatable=0;whiteSpace=wrap;html=1;" vertex="1" parent="5f_vDEl9bE6pwLl_rPAP-24">
          <mxGeometry y="60" width="140" height="30" as="geometry" />
        </mxCell>
        <mxCell id="5f_vDEl9bE6pwLl_rPAP-27" value="отклонено" style="text;strokeColor=none;fillColor=none;align=left;verticalAlign=middle;spacingLeft=4;spacingRight=4;overflow=hidden;points=[[0,0.5],[1,0.5]];portConstraint=eastwest;rotatable=0;whiteSpace=wrap;html=1;" vertex="1" parent="5f_vDEl9bE6pwLl_rPAP-24">
          <mxGeometry y="90" width="140" height="30" as="geometry" />
        </mxCell>
        <mxCell id="5f_vDEl9bE6pwLl_rPAP-28" style="edgeStyle=none;curved=1;rounded=0;orthogonalLoop=1;jettySize=auto;html=1;fontSize=12;startSize=8;endSize=8;exitX=1;exitY=0.5;exitDx=0;exitDy=0;" edge="1" parent="5f_vDEl9bE6pwLl_rPAP-18" source="5f_vDEl9bE6pwLl_rPAP-23" target="5f_vDEl9bE6pwLl_rPAP-24">
          <mxGeometry relative="1" as="geometry" />
        </mxCell>
        <mxCell id="5f_vDEl9bE6pwLl_rPAP-34" style="rounded=0;orthogonalLoop=1;jettySize=auto;html=1;fontSize=12;dashed=1;endArrow=none;endFill=0;dashPattern=1 4;" edge="1" parent="5f_vDEl9bE6pwLl_rPAP-18" source="5f_vDEl9bE6pwLl_rPAP-29" target="5f_vDEl9bE6pwLl_rPAP-30">
          <mxGeometry relative="1" as="geometry" />
        </mxCell>
        <mxCell id="5f_vDEl9bE6pwLl_rPAP-36" style="edgeStyle=none;curved=1;rounded=0;orthogonalLoop=1;jettySize=auto;html=1;fontSize=12;startSize=8;endSize=8;dashed=1;endArrow=none;endFill=0;" edge="1" parent="5f_vDEl9bE6pwLl_rPAP-18" source="5f_vDEl9bE6pwLl_rPAP-29" target="5f_vDEl9bE6pwLl_rPAP-20">
          <mxGeometry relative="1" as="geometry" />
        </mxCell>
        <mxCell id="5f_vDEl9bE6pwLl_rPAP-29" value="Поиск заявления" style="ellipse;whiteSpace=wrap;html=1;" vertex="1" parent="5f_vDEl9bE6pwLl_rPAP-18">
          <mxGeometry x="325" y="318" width="120" height="80" as="geometry" />
        </mxCell>
        <mxCell id="5f_vDEl9bE6pwLl_rPAP-30" value="Данные для поиска заявления" style="swimlane;fontStyle=0;childLayout=stackLayout;horizontal=1;startSize=30;horizontalStack=0;resizeParent=1;resizeParentMax=0;resizeLast=0;collapsible=1;marginBottom=0;whiteSpace=wrap;html=1;" vertex="1" parent="5f_vDEl9bE6pwLl_rPAP-18">
          <mxGeometry x="629" y="382" width="140" height="90" as="geometry" />
        </mxCell>
        <mxCell id="5f_vDEl9bE6pwLl_rPAP-31" value="Описание" style="text;strokeColor=none;fillColor=none;align=left;verticalAlign=middle;spacingLeft=4;spacingRight=4;overflow=hidden;points=[[0,0.5],[1,0.5]];portConstraint=eastwest;rotatable=0;whiteSpace=wrap;html=1;" vertex="1" parent="5f_vDEl9bE6pwLl_rPAP-30">
          <mxGeometry y="30" width="140" height="30" as="geometry" />
        </mxCell>
        <mxCell id="5f_vDEl9bE6pwLl_rPAP-32" value="Номер автомобиля" style="text;strokeColor=none;fillColor=none;align=left;verticalAlign=middle;spacingLeft=4;spacingRight=4;overflow=hidden;points=[[0,0.5],[1,0.5]];portConstraint=eastwest;rotatable=0;whiteSpace=wrap;html=1;" vertex="1" parent="5f_vDEl9bE6pwLl_rPAP-30">
          <mxGeometry y="60" width="140" height="30" as="geometry" />
        </mxCell>
        <mxCell id="5f_vDEl9bE6pwLl_rPAP-37" value="Администратор" style="shape=umlActor;verticalLabelPosition=bottom;verticalAlign=top;html=1;outlineConnect=0;" vertex="1" parent="5f_vDEl9bE6pwLl_rPAP-18">
          <mxGeometry x="111" y="412" width="30" height="60" as="geometry" />
        </mxCell>
        <mxCell id="5f_vDEl9bE6pwLl_rPAP-42" value="Подтверждение заявления" style="ellipse;whiteSpace=wrap;html=1;" vertex="1" parent="5f_vDEl9bE6pwLl_rPAP-18">
          <mxGeometry x="209" y="472" width="120" height="80" as="geometry" />
        </mxCell>
      </root>
    </mxGraphModel>
  </diagram>
</mxfile>
